<svg xmlns="http://www.w3.org/2000/svg" viewBox="0 0 1200 900" role="img" aria-label="fashion-accessories artwork">
  <rect width="1200" height="900" fill="#F5EFE7"/>
  
    <circle cx="358" cy="221" r="213" fill="#C99B3E" opacity="0.12"/>
    <circle cx="817" cy="677" r="248" fill="#8A4B5C" opacity="0.10"/>
  <g>
    <circle cx="850" cy="489" r="1.1" fill="#3E4440" opacity="0.09"/>
    <circle cx="89" cy="776" r="2.6" fill="#3E4440" opacity="0.10"/>
    <circle cx="737" cy="109" r="2.8" fill="#3E4440" opacity="0.14"/>
    <circle cx="668" cy="779" r="1.1" fill="#3E4440" opacity="0.09"/>
    <circle cx="1057" cy="419" r="1.4" fill="#3E4440" opacity="0.11"/>
    <circle cx="649" cy="839" r="1.2" fill="#3E4440" opacity="0.20"/>
    <circle cx="679" cy="700" r="2.8" fill="#3E4440" opacity="0.09"/>
    <circle cx="994" cy="318" r="2.8" fill="#3E4440" opacity="0.09"/>
    <circle cx="185" cy="324" r="2.5" fill="#3E4440" opacity="0.06"/>
    <circle cx="583" cy="786" r="2.5" fill="#3E4440" opacity="0.07"/>
    <circle cx="690" cy="558" r="2.8" fill="#3E4440" opacity="0.09"/>
    <circle cx="270" cy="74" r="1.3" fill="#3E4440" opacity="0.18"/>
    <circle cx="326" cy="503" r="1.4" fill="#3E4440" opacity="0.15"/>
    <circle cx="345" cy="194" r="1.0" fill="#3E4440" opacity="0.05"/>
    <circle cx="101" cy="581" r="2.8" fill="#3E4440" opacity="0.12"/>
    <circle cx="843" cy="519" r="2.4" fill="#3E4440" opacity="0.06"/>
    <circle cx="844" cy="575" r="0.9" fill="#3E4440" opacity="0.12"/>
    <circle cx="1090" cy="187" r="2.1" fill="#3E4440" opacity="0.17"/>
    <circle cx="482" cy="808" r="1.6" fill="#3E4440" opacity="0.11"/>
    <circle cx="47" cy="483" r="2.9" fill="#3E4440" opacity="0.07"/>
    <circle cx="1091" cy="573" r="3.0" fill="#3E4440" opacity="0.07"/>
    <circle cx="620" cy="169" r="1.2" fill="#3E4440" opacity="0.13"/>
    <circle cx="1155" cy="192" r="1.4" fill="#3E4440" opacity="0.13"/>
    <circle cx="782" cy="619" r="2.3" fill="#3E4440" opacity="0.10"/>
    <circle cx="709" cy="428" r="2.3" fill="#3E4440" opacity="0.21"/>
    <circle cx="655" cy="853" r="1.3" fill="#3E4440" opacity="0.09"/>
  </g>
  <g>
    
    <line x1="600" y1="120" x2="600" y2="320" stroke="#8A4B5C" stroke-width="6"/>
    <path d="M600 320 C 520 320 470 380 470 460 C 470 540 530 590 600 590 C 670 590 730 540 730 460 C 730 380 680 320 600 320 Z" fill="#2C6B4C" opacity="0.92"/>
    <path d="M600 330 C 545 330 510 375 510 450 C 510 520 555 560 600 560 C 645 560 690 520 690 450 C 690 375 655 330 600 330 Z" fill="#C99B3E" opacity="0.85"/>
    <path d="M420 470 C 380 470 350 510 350 560 C 350 610 390 645 440 645 C 490 645 530 610 530 560 C 530 510 500 470 420 470 Z" fill="#8A4B5C" opacity="0.5"/>
    <path d="M790 380 C 755 380 730 415 730 460 C 730 505 762 535 805 535 C 848 535 880 505 880 460 C 880 415 855 380 790 380 Z" fill="#2C6B4C" opacity="0.45"/>
    <circle cx="600" cy="300" r="26" fill="#C99B3E"/>
    <circle cx="600" cy="300" r="10" fill="#8A4B5C" opacity="0.8"/>
  </g>
  <rect x="28" y="28" width="1144" height="844" rx="28" fill="none" stroke="#2C6B4C" stroke-opacity="0.18" stroke-width="2"/>
</svg>