<svg xmlns="http://www.w3.org/2000/svg" viewBox="0 0 1200 900" role="img" aria-label="fashion-accessories artwork">
  <rect width="1200" height="900" fill="#F5EFE7"/>
  
    <circle cx="314" cy="189" r="206" fill="#3E4440" opacity="0.12"/>
    <circle cx="1065" cy="688" r="263" fill="#C99B3E" opacity="0.10"/>
  <g>
    <circle cx="358" cy="224" r="1.9" fill="#D9B36A" opacity="0.16"/>
    <circle cx="950" cy="386" r="1.5" fill="#D9B36A" opacity="0.21"/>
    <circle cx="62" cy="648" r="2.4" fill="#D9B36A" opacity="0.18"/>
    <circle cx="1116" cy="326" r="2.3" fill="#D9B36A" opacity="0.07"/>
    <circle cx="700" cy="565" r="1.0" fill="#D9B36A" opacity="0.14"/>
    <circle cx="744" cy="550" r="1.6" fill="#D9B36A" opacity="0.15"/>
    <circle cx="687" cy="690" r="1.6" fill="#D9B36A" opacity="0.19"/>
    <circle cx="486" cy="171" r="2.8" fill="#D9B36A" opacity="0.09"/>
    <circle cx="99" cy="243" r="2.8" fill="#D9B36A" opacity="0.13"/>
    <circle cx="246" cy="565" r="2.0" fill="#D9B36A" opacity="0.07"/>
    <circle cx="312" cy="847" r="2.9" fill="#D9B36A" opacity="0.14"/>
    <circle cx="1117" cy="869" r="3.0" fill="#D9B36A" opacity="0.19"/>
    <circle cx="131" cy="122" r="1.8" fill="#D9B36A" opacity="0.07"/>
    <circle cx="325" cy="96" r="1.5" fill="#D9B36A" opacity="0.12"/>
    <circle cx="197" cy="617" r="0.9" fill="#D9B36A" opacity="0.12"/>
    <circle cx="860" cy="140" r="1.4" fill="#D9B36A" opacity="0.06"/>
    <circle cx="471" cy="763" r="2.9" fill="#D9B36A" opacity="0.16"/>
    <circle cx="149" cy="169" r="2.9" fill="#D9B36A" opacity="0.10"/>
    <circle cx="683" cy="598" r="3.1" fill="#D9B36A" opacity="0.16"/>
    <circle cx="974" cy="371" r="1.3" fill="#D9B36A" opacity="0.20"/>
    <circle cx="449" cy="667" r="2.0" fill="#D9B36A" opacity="0.11"/>
    <circle cx="1068" cy="808" r="1.9" fill="#D9B36A" opacity="0.10"/>
    <circle cx="45" cy="689" r="1.3" fill="#D9B36A" opacity="0.09"/>
    <circle cx="169" cy="505" r="2.9" fill="#D9B36A" opacity="0.10"/>
    <circle cx="245" cy="373" r="1.8" fill="#D9B36A" opacity="0.19"/>
    <circle cx="897" cy="81" r="2.0" fill="#D9B36A" opacity="0.18"/>
  </g>
  <g>
    
    <line x1="600" y1="120" x2="600" y2="320" stroke="#C99B3E" stroke-width="6"/>
    <path d="M600 320 C 520 320 470 380 470 460 C 470 540 530 590 600 590 C 670 590 730 540 730 460 C 730 380 680 320 600 320 Z" fill="#2C6B4C" opacity="0.92"/>
    <path d="M600 330 C 545 330 510 375 510 450 C 510 520 555 560 600 560 C 645 560 690 520 690 450 C 690 375 655 330 600 330 Z" fill="#3E4440" opacity="0.85"/>
    <path d="M420 470 C 380 470 350 510 350 560 C 350 610 390 645 440 645 C 490 645 530 610 530 560 C 530 510 500 470 420 470 Z" fill="#C99B3E" opacity="0.5"/>
    <path d="M790 380 C 755 380 730 415 730 460 C 730 505 762 535 805 535 C 848 535 880 505 880 460 C 880 415 855 380 790 380 Z" fill="#2C6B4C" opacity="0.45"/>
    <circle cx="600" cy="300" r="26" fill="#3E4440"/>
    <circle cx="600" cy="300" r="10" fill="#C99B3E" opacity="0.8"/>
  </g>
  <rect x="28" y="28" width="1144" height="844" rx="28" fill="none" stroke="#2C6B4C" stroke-opacity="0.18" stroke-width="2"/>
</svg>