<svg xmlns="http://www.w3.org/2000/svg" viewBox="0 0 1200 900" role="img" aria-label="food-beverages artwork">
  <rect width="1200" height="900" fill="#F6F0E4"/>
  
    <circle cx="524" cy="187" r="213" fill="#7A561E" opacity="0.12"/>
    <circle cx="1052" cy="694" r="293" fill="#3E8562" opacity="0.10"/>
  <g>
    <circle cx="638" cy="204" r="1.5" fill="#D9B36A" opacity="0.15"/>
    <circle cx="855" cy="40" r="3.1" fill="#D9B36A" opacity="0.16"/>
    <circle cx="607" cy="301" r="2.4" fill="#D9B36A" opacity="0.20"/>
    <circle cx="552" cy="832" r="2.8" fill="#D9B36A" opacity="0.21"/>
    <circle cx="985" cy="243" r="1.8" fill="#D9B36A" opacity="0.16"/>
    <circle cx="443" cy="733" r="2.6" fill="#D9B36A" opacity="0.09"/>
    <circle cx="611" cy="216" r="2.8" fill="#D9B36A" opacity="0.13"/>
    <circle cx="655" cy="345" r="3.1" fill="#D9B36A" opacity="0.15"/>
    <circle cx="328" cy="351" r="2.9" fill="#D9B36A" opacity="0.10"/>
    <circle cx="732" cy="470" r="2.9" fill="#D9B36A" opacity="0.06"/>
    <circle cx="533" cy="453" r="0.9" fill="#D9B36A" opacity="0.12"/>
    <circle cx="259" cy="107" r="2.6" fill="#D9B36A" opacity="0.13"/>
    <circle cx="166" cy="419" r="2.4" fill="#D9B36A" opacity="0.18"/>
    <circle cx="157" cy="710" r="2.1" fill="#D9B36A" opacity="0.19"/>
    <circle cx="268" cy="834" r="2.3" fill="#D9B36A" opacity="0.07"/>
    <circle cx="128" cy="413" r="1.0" fill="#D9B36A" opacity="0.20"/>
    <circle cx="630" cy="759" r="2.0" fill="#D9B36A" opacity="0.11"/>
    <circle cx="461" cy="95" r="2.6" fill="#D9B36A" opacity="0.20"/>
    <circle cx="320" cy="853" r="2.9" fill="#D9B36A" opacity="0.12"/>
    <circle cx="483" cy="373" r="1.4" fill="#D9B36A" opacity="0.08"/>
    <circle cx="1027" cy="243" r="1.1" fill="#D9B36A" opacity="0.09"/>
    <circle cx="927" cy="804" r="1.4" fill="#D9B36A" opacity="0.21"/>
    <circle cx="199" cy="235" r="3.0" fill="#D9B36A" opacity="0.13"/>
    <circle cx="1023" cy="256" r="1.3" fill="#D9B36A" opacity="0.16"/>
    <circle cx="1123" cy="224" r="2.5" fill="#D9B36A" opacity="0.16"/>
    <circle cx="1136" cy="134" r="3.1" fill="#D9B36A" opacity="0.17"/>
  </g>
  <g>
    
    <circle cx="600" cy="470" r="190" fill="#B4530A" opacity="0.9"/>
    <circle cx="600" cy="470" r="140" fill="#3E8562" opacity="0.35"/>
    <circle cx="600" cy="470" r="92" fill="#7A561E" opacity="0.85"/>
    <path d="M560 300 C 540 260 580 250 560 210" stroke="#B4530A" stroke-width="10" fill="none" stroke-linecap="round" opacity="0.7"/>
    <path d="M610 310 C 630 265 590 258 612 215" stroke="#7A561E" stroke-width="10" fill="none" stroke-linecap="round" opacity="0.6"/>
    <path d="M660 300 C 645 268 680 258 662 222" stroke="#3E8562" stroke-width="10" fill="none" stroke-linecap="round" opacity="0.5"/>
    <circle cx="330" cy="640" r="46" fill="#7A561E" opacity="0.5"/>
    <circle cx="870" cy="330" r="34" fill="#B4530A" opacity="0.45"/>
    <circle cx="890" cy="620" r="22" fill="#3E8562" opacity="0.55"/>
  </g>
  <rect x="28" y="28" width="1144" height="844" rx="28" fill="none" stroke="#B4530A" stroke-opacity="0.18" stroke-width="2"/>
</svg>