<svg xmlns="http://www.w3.org/2000/svg" viewBox="0 0 1200 900" role="img" aria-label="gifts-home-decor artwork">
  <rect width="1200" height="900" fill="#F2EDE6"/>
  
    <circle cx="169" cy="109" r="254" fill="#2C6B4C" opacity="0.12"/>
    <circle cx="821" cy="726" r="189" fill="#C99B3E" opacity="0.10"/>
  <g>
    <circle cx="265" cy="747" r="1.8" fill="#5C401C" opacity="0.07"/>
    <circle cx="942" cy="382" r="1.9" fill="#5C401C" opacity="0.20"/>
    <circle cx="602" cy="793" r="2.1" fill="#5C401C" opacity="0.08"/>
    <circle cx="623" cy="849" r="2.5" fill="#5C401C" opacity="0.15"/>
    <circle cx="304" cy="36" r="2.9" fill="#5C401C" opacity="0.16"/>
    <circle cx="464" cy="797" r="0.9" fill="#5C401C" opacity="0.07"/>
    <circle cx="624" cy="53" r="2.1" fill="#5C401C" opacity="0.06"/>
    <circle cx="396" cy="245" r="2.7" fill="#5C401C" opacity="0.15"/>
    <circle cx="280" cy="135" r="1.9" fill="#5C401C" opacity="0.18"/>
    <circle cx="96" cy="699" r="1.3" fill="#5C401C" opacity="0.20"/>
    <circle cx="821" cy="587" r="1.5" fill="#5C401C" opacity="0.07"/>
    <circle cx="604" cy="769" r="2.8" fill="#5C401C" opacity="0.20"/>
    <circle cx="815" cy="823" r="3.1" fill="#5C401C" opacity="0.17"/>
    <circle cx="265" cy="317" r="1.9" fill="#5C401C" opacity="0.15"/>
    <circle cx="654" cy="514" r="1.7" fill="#5C401C" opacity="0.15"/>
    <circle cx="964" cy="412" r="1.8" fill="#5C401C" opacity="0.07"/>
    <circle cx="289" cy="84" r="1.1" fill="#5C401C" opacity="0.05"/>
    <circle cx="489" cy="703" r="1.1" fill="#5C401C" opacity="0.09"/>
    <circle cx="838" cy="137" r="1.0" fill="#5C401C" opacity="0.20"/>
    <circle cx="585" cy="695" r="2.0" fill="#5C401C" opacity="0.07"/>
    <circle cx="587" cy="215" r="2.9" fill="#5C401C" opacity="0.20"/>
    <circle cx="283" cy="134" r="1.1" fill="#5C401C" opacity="0.06"/>
    <circle cx="114" cy="35" r="1.9" fill="#5C401C" opacity="0.08"/>
    <circle cx="340" cy="291" r="1.4" fill="#5C401C" opacity="0.09"/>
    <circle cx="69" cy="383" r="1.0" fill="#5C401C" opacity="0.07"/>
    <circle cx="154" cy="676" r="2.6" fill="#5C401C" opacity="0.09"/>
  </g>
  <g>
    
    <rect x="420" y="430" width="360" height="260" rx="18" fill="#7A561E" opacity="0.9"/>
    <rect x="420" y="380" width="360" height="70" rx="18" fill="#C99B3E" opacity="0.85"/>
    <rect x="566" y="380" width="68" height="310" fill="#2C6B4C" opacity="0.9"/>
    <path d="M600 380 C 540 300 500 320 540 360 C 570 388 600 380 600 380 Z" fill="#2C6B4C"/>
    <path d="M600 380 C 660 300 700 320 660 360 C 630 388 600 380 600 380 Z" fill="#2C6B4C"/>
    <circle cx="600" cy="382" r="30" fill="#C99B3E"/>
    <circle cx="330" cy="300" r="52" fill="#2C6B4C" opacity="0.4"/>
    <circle cx="880" cy="700" r="64" fill="#7A561E" opacity="0.35"/>
    <rect x="240" y="640" width="90" height="90" rx="14" fill="#C99B3E" opacity="0.3" transform="rotate(18 285 685)"/>
  </g>
  <rect x="28" y="28" width="1144" height="844" rx="28" fill="none" stroke="#7A561E" stroke-opacity="0.18" stroke-width="2"/>
</svg>