<svg xmlns="http://www.w3.org/2000/svg" viewBox="0 0 1200 900" role="img" aria-label="personal-care-skincare artwork">
  <rect width="1200" height="900" fill="#EFF3EE"/>
  
    <circle cx="168" cy="129" r="244" fill="#8FBFA4" opacity="0.12"/>
    <circle cx="1030" cy="549" r="237" fill="#C99B3E" opacity="0.10"/>
  <g>
    <circle cx="489" cy="832" r="2.6" fill="#23563D" opacity="0.18"/>
    <circle cx="928" cy="158" r="3.1" fill="#23563D" opacity="0.12"/>
    <circle cx="803" cy="136" r="2.3" fill="#23563D" opacity="0.18"/>
    <circle cx="778" cy="193" r="0.8" fill="#23563D" opacity="0.20"/>
    <circle cx="349" cy="796" r="1.3" fill="#23563D" opacity="0.17"/>
    <circle cx="1130" cy="813" r="1.9" fill="#23563D" opacity="0.18"/>
    <circle cx="67" cy="170" r="2.7" fill="#23563D" opacity="0.16"/>
    <circle cx="680" cy="871" r="1.9" fill="#23563D" opacity="0.06"/>
    <circle cx="119" cy="531" r="1.6" fill="#23563D" opacity="0.18"/>
    <circle cx="380" cy="831" r="2.4" fill="#23563D" opacity="0.07"/>
    <circle cx="922" cy="874" r="2.5" fill="#23563D" opacity="0.17"/>
    <circle cx="730" cy="326" r="2.5" fill="#23563D" opacity="0.09"/>
    <circle cx="821" cy="67" r="3.1" fill="#23563D" opacity="0.16"/>
    <circle cx="536" cy="128" r="2.0" fill="#23563D" opacity="0.16"/>
    <circle cx="746" cy="619" r="1.2" fill="#23563D" opacity="0.10"/>
    <circle cx="983" cy="878" r="3.0" fill="#23563D" opacity="0.05"/>
    <circle cx="492" cy="81" r="2.8" fill="#23563D" opacity="0.07"/>
    <circle cx="157" cy="584" r="1.5" fill="#23563D" opacity="0.08"/>
    <circle cx="1175" cy="642" r="1.9" fill="#23563D" opacity="0.11"/>
    <circle cx="623" cy="221" r="1.6" fill="#23563D" opacity="0.08"/>
    <circle cx="878" cy="25" r="2.4" fill="#23563D" opacity="0.14"/>
    <circle cx="485" cy="25" r="1.8" fill="#23563D" opacity="0.12"/>
    <circle cx="488" cy="208" r="0.9" fill="#23563D" opacity="0.05"/>
    <circle cx="25" cy="707" r="1.7" fill="#23563D" opacity="0.19"/>
    <circle cx="175" cy="575" r="3.0" fill="#23563D" opacity="0.08"/>
    <circle cx="390" cy="854" r="2.8" fill="#23563D" opacity="0.08"/>
  </g>
  <g>
    
    <path d="M600 180 C 690 320 740 400 740 500 A 140 140 0 0 1 460 500 C 460 400 510 320 600 180 Z" fill="#3E8562" opacity="0.9"/>
    <path d="M600 260 C 655 350 690 410 690 490 A 90 90 0 0 1 510 490 C 510 410 545 350 600 260 Z" fill="#8FBFA4" opacity="0.55"/>
    <circle cx="420" cy="330" r="42" fill="#8FBFA4" opacity="0.55"/>
    <circle cx="790" cy="420" r="58" fill="#C99B3E" opacity="0.45"/>
    <circle cx="360" cy="560" r="26" fill="#3E8562" opacity="0.4"/>
    <circle cx="830" cy="620" r="34" fill="#8FBFA4" opacity="0.5"/>
    <circle cx="700" cy="700" r="18" fill="#C99B3E" opacity="0.55"/>
    <circle cx="500" cy="710" r="24" fill="#3E8562" opacity="0.35"/>
  </g>
  <rect x="28" y="28" width="1144" height="844" rx="28" fill="none" stroke="#3E8562" stroke-opacity="0.18" stroke-width="2"/>
</svg>