<svg xmlns="http://www.w3.org/2000/svg" viewBox="0 0 1200 900" role="img" aria-label="event-services artwork">
  <rect width="1200" height="900" fill="#F6F0EC"/>
  
    <circle cx="354" cy="307" r="175" fill="#7A561E" opacity="0.12"/>
    <circle cx="998" cy="545" r="317" fill="#C99B3E" opacity="0.10"/>
  <g>
    <circle cx="123" cy="615" r="2.2" fill="#2C6B4C" opacity="0.17"/>
    <circle cx="460" cy="138" r="2.3" fill="#2C6B4C" opacity="0.18"/>
    <circle cx="1119" cy="802" r="1.9" fill="#2C6B4C" opacity="0.17"/>
    <circle cx="409" cy="860" r="2.0" fill="#2C6B4C" opacity="0.09"/>
    <circle cx="181" cy="356" r="1.4" fill="#2C6B4C" opacity="0.05"/>
    <circle cx="340" cy="308" r="2.0" fill="#2C6B4C" opacity="0.21"/>
    <circle cx="388" cy="336" r="1.2" fill="#2C6B4C" opacity="0.13"/>
    <circle cx="967" cy="652" r="3.2" fill="#2C6B4C" opacity="0.11"/>
    <circle cx="823" cy="318" r="3.2" fill="#2C6B4C" opacity="0.18"/>
    <circle cx="58" cy="340" r="2.0" fill="#2C6B4C" opacity="0.15"/>
    <circle cx="143" cy="805" r="0.9" fill="#2C6B4C" opacity="0.07"/>
    <circle cx="625" cy="878" r="0.9" fill="#2C6B4C" opacity="0.14"/>
    <circle cx="608" cy="35" r="1.7" fill="#2C6B4C" opacity="0.13"/>
    <circle cx="818" cy="30" r="2.4" fill="#2C6B4C" opacity="0.17"/>
    <circle cx="532" cy="663" r="2.0" fill="#2C6B4C" opacity="0.10"/>
    <circle cx="603" cy="489" r="3.0" fill="#2C6B4C" opacity="0.10"/>
    <circle cx="827" cy="41" r="2.5" fill="#2C6B4C" opacity="0.07"/>
    <circle cx="1033" cy="269" r="1.0" fill="#2C6B4C" opacity="0.09"/>
    <circle cx="719" cy="221" r="2.3" fill="#2C6B4C" opacity="0.18"/>
    <circle cx="78" cy="423" r="3.1" fill="#2C6B4C" opacity="0.17"/>
    <circle cx="925" cy="584" r="2.4" fill="#2C6B4C" opacity="0.19"/>
    <circle cx="860" cy="531" r="3.1" fill="#2C6B4C" opacity="0.12"/>
    <circle cx="939" cy="848" r="1.8" fill="#2C6B4C" opacity="0.06"/>
    <circle cx="255" cy="670" r="1.8" fill="#2C6B4C" opacity="0.17"/>
    <circle cx="296" cy="321" r="1.7" fill="#2C6B4C" opacity="0.12"/>
    <circle cx="1146" cy="253" r="1.7" fill="#2C6B4C" opacity="0.15"/>
  </g>
  <g>
    
    <path d="M240 310 Q 600 430 960 310" stroke="#8C3B2E" stroke-width="8" fill="none" opacity="0.85"/>
    <path d="M320 300 L384 306 L330 408 Z" fill="#8C3B2E" opacity="0.75"/>
    <path d="M430 335.2671151375484 L494 341.2671151375484 L440 443.2671151375484 Z" fill="#7A561E" opacity="0.9"/>
    <path d="M540 357.0633909777092 L604 363.0633909777092 L550 465.0633909777092 Z" fill="#C99B3E" opacity="0.75"/>
    <path d="M650 357.0633909777092 L714 363.0633909777092 L660 465.0633909777092 Z" fill="#8C3B2E" opacity="0.9"/>
    <path d="M760 335.2671151375484 L824 341.2671151375484 L770 443.2671151375484 Z" fill="#7A561E" opacity="0.75"/>
    <path d="M870 300 L934 306 L880 408 Z" fill="#C99B3E" opacity="0.9"/>
    <circle cx="330" cy="640" r="44" fill="#7A561E" opacity="0.4"/>
    <circle cx="870" cy="660" r="56" fill="#C99B3E" opacity="0.35"/>
    <circle cx="600" cy="760" r="30" fill="#8C3B2E" opacity="0.3"/>
  </g>
  <rect x="28" y="28" width="1144" height="844" rx="28" fill="none" stroke="#8C3B2E" stroke-opacity="0.18" stroke-width="2"/>
</svg>