<svg xmlns="http://www.w3.org/2000/svg" viewBox="0 0 1200 900" role="img" aria-label="fashion-accessories artwork">
  <rect width="1200" height="900" fill="#F5EFE7"/>
  
    <circle cx="345" cy="97" r="258" fill="#D9B36A" opacity="0.12"/>
    <circle cx="757" cy="465" r="266" fill="#2C6B4C" opacity="0.10"/>
  <g>
    <circle cx="230" cy="438" r="3.2" fill="#8A4B5C" opacity="0.12"/>
    <circle cx="920" cy="621" r="2.7" fill="#8A4B5C" opacity="0.10"/>
    <circle cx="979" cy="218" r="2.8" fill="#8A4B5C" opacity="0.11"/>
    <circle cx="489" cy="383" r="2.0" fill="#8A4B5C" opacity="0.08"/>
    <circle cx="470" cy="530" r="2.1" fill="#8A4B5C" opacity="0.05"/>
    <circle cx="757" cy="523" r="1.5" fill="#8A4B5C" opacity="0.08"/>
    <circle cx="617" cy="790" r="3.0" fill="#8A4B5C" opacity="0.11"/>
    <circle cx="1091" cy="528" r="2.6" fill="#8A4B5C" opacity="0.15"/>
    <circle cx="1117" cy="715" r="2.5" fill="#8A4B5C" opacity="0.18"/>
    <circle cx="1137" cy="148" r="1.8" fill="#8A4B5C" opacity="0.15"/>
    <circle cx="685" cy="166" r="1.9" fill="#8A4B5C" opacity="0.21"/>
    <circle cx="939" cy="108" r="1.2" fill="#8A4B5C" opacity="0.18"/>
    <circle cx="886" cy="530" r="0.8" fill="#8A4B5C" opacity="0.14"/>
    <circle cx="244" cy="834" r="0.9" fill="#8A4B5C" opacity="0.08"/>
    <circle cx="613" cy="577" r="3.2" fill="#8A4B5C" opacity="0.17"/>
    <circle cx="798" cy="473" r="2.6" fill="#8A4B5C" opacity="0.10"/>
    <circle cx="56" cy="602" r="1.2" fill="#8A4B5C" opacity="0.05"/>
    <circle cx="704" cy="505" r="1.7" fill="#8A4B5C" opacity="0.10"/>
    <circle cx="1102" cy="507" r="1.6" fill="#8A4B5C" opacity="0.19"/>
    <circle cx="558" cy="472" r="1.0" fill="#8A4B5C" opacity="0.11"/>
    <circle cx="442" cy="508" r="2.7" fill="#8A4B5C" opacity="0.15"/>
    <circle cx="116" cy="715" r="3.0" fill="#8A4B5C" opacity="0.16"/>
    <circle cx="536" cy="499" r="2.9" fill="#8A4B5C" opacity="0.13"/>
    <circle cx="225" cy="830" r="1.3" fill="#8A4B5C" opacity="0.10"/>
    <circle cx="353" cy="39" r="2.4" fill="#8A4B5C" opacity="0.11"/>
    <circle cx="1097" cy="292" r="1.8" fill="#8A4B5C" opacity="0.09"/>
  </g>
  <g>
    
    <line x1="600" y1="120" x2="600" y2="320" stroke="#2C6B4C" stroke-width="6"/>
    <path d="M600 320 C 520 320 470 380 470 460 C 470 540 530 590 600 590 C 670 590 730 540 730 460 C 730 380 680 320 600 320 Z" fill="#C99B3E" opacity="0.92"/>
    <path d="M600 330 C 545 330 510 375 510 450 C 510 520 555 560 600 560 C 645 560 690 520 690 450 C 690 375 655 330 600 330 Z" fill="#D9B36A" opacity="0.85"/>
    <path d="M420 470 C 380 470 350 510 350 560 C 350 610 390 645 440 645 C 490 645 530 610 530 560 C 530 510 500 470 420 470 Z" fill="#2C6B4C" opacity="0.5"/>
    <path d="M790 380 C 755 380 730 415 730 460 C 730 505 762 535 805 535 C 848 535 880 505 880 460 C 880 415 855 380 790 380 Z" fill="#C99B3E" opacity="0.45"/>
    <circle cx="600" cy="300" r="26" fill="#D9B36A"/>
    <circle cx="600" cy="300" r="10" fill="#2C6B4C" opacity="0.8"/>
  </g>
  <rect x="28" y="28" width="1144" height="844" rx="28" fill="none" stroke="#C99B3E" stroke-opacity="0.18" stroke-width="2"/>
</svg>