<svg xmlns="http://www.w3.org/2000/svg" viewBox="0 0 1200 900" role="img" aria-label="food-beverages artwork">
  <rect width="1200" height="900" fill="#F6F0E4"/>
  
    <circle cx="576" cy="153" r="169" fill="#8C3B2E" opacity="0.12"/>
    <circle cx="802" cy="572" r="295" fill="#7A561E" opacity="0.10"/>
  <g>
    <circle cx="156" cy="140" r="2.9" fill="#B4530A" opacity="0.20"/>
    <circle cx="869" cy="519" r="2.0" fill="#B4530A" opacity="0.20"/>
    <circle cx="1031" cy="336" r="2.2" fill="#B4530A" opacity="0.20"/>
    <circle cx="401" cy="242" r="1.6" fill="#B4530A" opacity="0.13"/>
    <circle cx="1027" cy="388" r="2.4" fill="#B4530A" opacity="0.11"/>
    <circle cx="823" cy="479" r="1.4" fill="#B4530A" opacity="0.20"/>
    <circle cx="199" cy="460" r="2.8" fill="#B4530A" opacity="0.14"/>
    <circle cx="47" cy="323" r="2.3" fill="#B4530A" opacity="0.17"/>
    <circle cx="791" cy="253" r="1.6" fill="#B4530A" opacity="0.11"/>
    <circle cx="967" cy="513" r="2.0" fill="#B4530A" opacity="0.12"/>
    <circle cx="547" cy="312" r="1.6" fill="#B4530A" opacity="0.09"/>
    <circle cx="934" cy="783" r="2.9" fill="#B4530A" opacity="0.07"/>
    <circle cx="285" cy="446" r="2.6" fill="#B4530A" opacity="0.12"/>
    <circle cx="914" cy="357" r="0.8" fill="#B4530A" opacity="0.12"/>
    <circle cx="770" cy="250" r="0.9" fill="#B4530A" opacity="0.15"/>
    <circle cx="997" cy="474" r="2.3" fill="#B4530A" opacity="0.11"/>
    <circle cx="1064" cy="779" r="1.4" fill="#B4530A" opacity="0.20"/>
    <circle cx="1178" cy="484" r="2.0" fill="#B4530A" opacity="0.15"/>
    <circle cx="828" cy="716" r="2.6" fill="#B4530A" opacity="0.19"/>
    <circle cx="1023" cy="315" r="2.1" fill="#B4530A" opacity="0.14"/>
    <circle cx="303" cy="808" r="0.9" fill="#B4530A" opacity="0.20"/>
    <circle cx="477" cy="126" r="1.7" fill="#B4530A" opacity="0.20"/>
    <circle cx="534" cy="44" r="1.7" fill="#B4530A" opacity="0.11"/>
    <circle cx="170" cy="170" r="3.1" fill="#B4530A" opacity="0.16"/>
    <circle cx="942" cy="57" r="2.7" fill="#B4530A" opacity="0.07"/>
    <circle cx="91" cy="188" r="2.2" fill="#B4530A" opacity="0.09"/>
  </g>
  <g>
    
    <circle cx="600" cy="470" r="190" fill="#3E8562" opacity="0.9"/>
    <circle cx="600" cy="470" r="140" fill="#7A561E" opacity="0.35"/>
    <circle cx="600" cy="470" r="92" fill="#8C3B2E" opacity="0.85"/>
    <path d="M560 300 C 540 260 580 250 560 210" stroke="#3E8562" stroke-width="10" fill="none" stroke-linecap="round" opacity="0.7"/>
    <path d="M610 310 C 630 265 590 258 612 215" stroke="#8C3B2E" stroke-width="10" fill="none" stroke-linecap="round" opacity="0.6"/>
    <path d="M660 300 C 645 268 680 258 662 222" stroke="#7A561E" stroke-width="10" fill="none" stroke-linecap="round" opacity="0.5"/>
    <circle cx="330" cy="640" r="46" fill="#8C3B2E" opacity="0.5"/>
    <circle cx="870" cy="330" r="34" fill="#3E8562" opacity="0.45"/>
    <circle cx="890" cy="620" r="22" fill="#7A561E" opacity="0.55"/>
  </g>
  <rect x="28" y="28" width="1144" height="844" rx="28" fill="none" stroke="#3E8562" stroke-opacity="0.18" stroke-width="2"/>
</svg>