<svg xmlns="http://www.w3.org/2000/svg" viewBox="0 0 1200 900" role="img" aria-label="gifts-home-decor artwork">
  <rect width="1200" height="900" fill="#F2EDE6"/>
  
    <circle cx="500" cy="304" r="123" fill="#5C401C" opacity="0.12"/>
    <circle cx="961" cy="534" r="284" fill="#A8553F" opacity="0.10"/>
  <g>
    <circle cx="556" cy="804" r="1.1" fill="#C99B3E" opacity="0.14"/>
    <circle cx="549" cy="42" r="2.5" fill="#C99B3E" opacity="0.12"/>
    <circle cx="1034" cy="155" r="3.1" fill="#C99B3E" opacity="0.11"/>
    <circle cx="655" cy="600" r="2.9" fill="#C99B3E" opacity="0.15"/>
    <circle cx="500" cy="484" r="1.6" fill="#C99B3E" opacity="0.06"/>
    <circle cx="969" cy="33" r="1.0" fill="#C99B3E" opacity="0.08"/>
    <circle cx="810" cy="434" r="3.2" fill="#C99B3E" opacity="0.13"/>
    <circle cx="353" cy="774" r="3.0" fill="#C99B3E" opacity="0.18"/>
    <circle cx="260" cy="157" r="2.9" fill="#C99B3E" opacity="0.08"/>
    <circle cx="136" cy="361" r="1.9" fill="#C99B3E" opacity="0.13"/>
    <circle cx="548" cy="31" r="2.7" fill="#C99B3E" opacity="0.11"/>
    <circle cx="614" cy="473" r="3.1" fill="#C99B3E" opacity="0.15"/>
    <circle cx="624" cy="198" r="1.4" fill="#C99B3E" opacity="0.11"/>
    <circle cx="658" cy="339" r="1.2" fill="#C99B3E" opacity="0.11"/>
    <circle cx="558" cy="385" r="2.2" fill="#C99B3E" opacity="0.14"/>
    <circle cx="1174" cy="395" r="1.7" fill="#C99B3E" opacity="0.21"/>
    <circle cx="787" cy="462" r="1.7" fill="#C99B3E" opacity="0.05"/>
    <circle cx="1091" cy="765" r="0.9" fill="#C99B3E" opacity="0.16"/>
    <circle cx="707" cy="315" r="2.9" fill="#C99B3E" opacity="0.14"/>
    <circle cx="979" cy="870" r="2.2" fill="#C99B3E" opacity="0.06"/>
    <circle cx="958" cy="587" r="1.0" fill="#C99B3E" opacity="0.18"/>
    <circle cx="1144" cy="96" r="1.8" fill="#C99B3E" opacity="0.19"/>
    <circle cx="484" cy="56" r="2.9" fill="#C99B3E" opacity="0.13"/>
    <circle cx="602" cy="459" r="1.3" fill="#C99B3E" opacity="0.17"/>
    <circle cx="1155" cy="149" r="1.6" fill="#C99B3E" opacity="0.07"/>
    <circle cx="889" cy="246" r="2.2" fill="#C99B3E" opacity="0.12"/>
  </g>
  <g>
    
    <rect x="420" y="430" width="360" height="260" rx="18" fill="#7A561E" opacity="0.9"/>
    <rect x="420" y="380" width="360" height="70" rx="18" fill="#A8553F" opacity="0.85"/>
    <rect x="566" y="380" width="68" height="310" fill="#5C401C" opacity="0.9"/>
    <path d="M600 380 C 540 300 500 320 540 360 C 570 388 600 380 600 380 Z" fill="#5C401C"/>
    <path d="M600 380 C 660 300 700 320 660 360 C 630 388 600 380 600 380 Z" fill="#5C401C"/>
    <circle cx="600" cy="382" r="30" fill="#A8553F"/>
    <circle cx="330" cy="300" r="52" fill="#5C401C" opacity="0.4"/>
    <circle cx="880" cy="700" r="64" fill="#7A561E" opacity="0.35"/>
    <rect x="240" y="640" width="90" height="90" rx="14" fill="#A8553F" opacity="0.3" transform="rotate(18 285 685)"/>
  </g>
  <rect x="28" y="28" width="1144" height="844" rx="28" fill="none" stroke="#7A561E" stroke-opacity="0.18" stroke-width="2"/>
</svg>